# xmcd
#
# Track frame offsets:
#	150
#	12971
#	27217
#	43057
#	58139
#	71626
#	85876
#	96505
#	111343
#	122583
#	137108
#	149308
#	163701
#	180585
#	193290
#	206625
#	223898
#	238214
#
# Disc length: 3398 seconds
#
# Revision: 0
# Processed by: cddbd v1.5.2PL0 Copyright (c) Steve Scherf et al.
# Submitted via: EasyCDDAExtractor 16.0.6.1
#
DISCID=1a0d4412
DTITLE=Μπιθικώτσης Γρηγόρης - Τραγούδια 45 στροφές-Μπιθικώτσης Γρηγόρης 3
DYEAR=1998
DGENRE=Λαϊκή
TTITLE0=Μπιθικώτσης Γρηγόρης-Γκίκα Βούλα - Ένα κομμάτι σπάγγο [1962, Ν. Καρανι
TTITLE0=κόλα-Ι. Σκρίνη]
TTITLE1=Μπιθικώτσης Γρηγόρης-Δούκισσα - Ποτέ δεν είναι αργά [1960, Μπ. Μπακάλη
TTITLE1=Δ. Γκούτη]
TTITLE2=Μπιθικώτσης Γρηγόρης - Οι αρχαίοι [1961, Γ. Μητσάκη]
TTITLE3=Μπιθικώτσης Γρηγόρης-Πέρρα Άντζελα - Τα σωφεράκια [1961, Θ. Δερβενιώτη
TTITLE3=Κ. Βίρβου]
TTITLE4=Μπιθικώτσης Γρηγόρης-Λύδια Γ.-Ατταλίδης Στρ. - Θα σε πάω στο φεγγάρι [
TTITLE4=1960, Μπ. Μπακάλη-Δ. Γκούτη]
TTITLE5=Μπιθικώτσης Γρηγόρης-Γκίκα Βούλα - Γειά σου Αθήνα, γειά σου Πειραιά [1
TTITLE5=963, Γρ.Μπιθικώτση-Χρ.Κολοκοτρώνη]
TTITLE6=Μπιθικώτσης Γρηγόρης-Γκίκα Βούλα - Τα χρόνια μου περάσανε [1963, Γρ. Μ
TTITLE6=πιθικώτση-Ν. Μπακούτη]
TTITLE7=Μπιθικώτσης Γρηγόρης-Κατινάρης Αντώνης - Το βουνό καπνίζει [1968, Α. Κ
TTITLE7=ατινάρη-Ευτ. Παπαγιαννοπούλου]
TTITLE8=Μπιθικώτσης Γρηγόρης-Παντελάκη Κική - Όταν σε γνώρισα [1968, Απ. Μάρδα
TTITLE8=]
TTITLE9=Μπιθικώτσης Γρηγόρης-Κατινάρης Αντώνης - Καράβι που ταξίδεψε [1969, Α.
TTITLE9=Κατινάρη-Ευτ. Παπαγιαννοπούλου]
TTITLE10=Μπιθικώτσης Γρηγόρης - Στα βουνά γλυκοχαράζει [1968, Χρ. Κολοκοτρώνη-
TTITLE10=Β. Καραπατάκη]
TTITLE11=Μπιθικώτσης Γρηγόρης-Γκίκα Βούλα-Καρανικόλας Ν. - Το κοσκινάκι [1963,
TTITLE11=Ν. Καρανικόλα-Ι. Σκρίνη]
TTITLE12=Μπιθικώτσης Γρηγόρης - Νύχτα στη δουλειά μου πάω [1962, Στ. Μακρυδάκη
TTITLE12=]
TTITLE13=Μπιθικώτσης Γρηγόρης-Κατινάρης Αντώνης - Αφήστε με μονάχο μου [1968, 
TTITLE13=Α. Κατινάρη-Ευτ. Παπαγιαννοπούλου]
TTITLE14=Μπιθικώτσης Γρηγόρης - Στο Πέραμα [1966, Χρ. Πήττα]
TTITLE15=Μπιθικώτσης Γρηγόρης-Κλειδωνιάρης Αντώνης - Από βυθό σ' άλλο βυθό [19
TTITLE15=65, Στ. Ξαρχάκου-Β. Γκούφα-Β. Ανδρεόπουλου]
TTITLE16=Μπιθικώτσης Γρηγόρης - Ξάπλωσε λίγο στο κρεββάτι [1966, Χρ. Πήττα]
TTITLE17=Μπιθικώτσης Γρηγόρης-Ιωαννίδης Μιχάλης - Στου κόσμου την ανηφοριά [19
TTITLE17=66, Μ. Θεοδωράκη-Ν. Γκαάτσου]
EXTD=
EXTT0=
EXTT1=
EXTT2=
EXTT3=
EXTT4=
EXTT5=
EXTT6=
EXTT7=
EXTT8=
EXTT9=
EXTT10=
EXTT11=
EXTT12=
EXTT13=
EXTT14=
EXTT15=
EXTT16=
EXTT17=
PLAYORDER=
